/* XPM */
static char * canorus_32x32_xpm[] = {
"32 32 273 2",
"  	c None",
". 	c #FBB756",
"+ 	c #F2A136",
"@ 	c #FFF3C7",
"# 	c #F6CA82",
"$ 	c #EE8608",
"% 	c #FFF1C2",
"& 	c #F6D08E",
"* 	c #E5840A",
"= 	c #F4CF8E",
"- 	c #E68307",
"; 	c #EDB159",
"> 	c #FFEEBE",
", 	c #FEEAB6",
"' 	c #EDC684",
") 	c #E1B46C",
"! 	c #D6A65C",
"~ 	c #BF8739",
"{ 	c #F98C04",
"] 	c #F7B251",
"^ 	c #F9D28E",
"/ 	c #FFF1C3",
"( 	c #FFF2C4",
"_ 	c #FEEBB9",
": 	c #F8DDA6",
"< 	c #D39949",
"[ 	c #D3A259",
"} 	c #D0A25D",
"| 	c #F2D8A2",
"1 	c #F5DEA9",
"2 	c #B48644",
"3 	c #FDB14A",
"4 	c #FFEDBB",
"5 	c #FFECBA",
"6 	c #F2CA86",
"7 	c #D28018",
"8 	c #FFF1C1",
"9 	c #EDCC8E",
"0 	c #A6742F",
"a 	c #F5DFAC",
"b 	c #C9A971",
"c 	c #FDC672",
"d 	c #FFEEBF",
"e 	c #FDE7B3",
"f 	c #CA7D1B",
"g 	c #ECCB8F",
"h 	c #DEC491",
"i 	c #CEB480",
"j 	c #FEBF64",
"k 	c #FFEBB8",
"l 	c #FFEAB5",
"m 	c #FFEAB6",
"n 	c #FFECB8",
"o 	c #E1A44E",
"p 	c #C17717",
"q 	c #FFF0BF",
"r 	c #EAC98C",
"s 	c #906123",
"t 	c #BB9961",
"u 	c #E2CA95",
"v 	c #FFF1BE",
"w 	c #8D6F41",
"x 	c #FD9F25",
"y 	c #FEE5A7",
"z 	c #FFE09F",
"A 	c #FFE1A0",
"B 	c #FFE6A7",
"C 	c #CF811B",
"D 	c #B97013",
"E 	c #FFE7A9",
"F 	c #E8C27C",
"G 	c #A37533",
"H 	c #FFEBAD",
"I 	c #FEE3A4",
"J 	c #FFE3A5",
"K 	c #FEE3A5",
"L 	c #F3D79B",
"M 	c #FDC86F",
"N 	c #FED789",
"O 	c #FFD789",
"P 	c #FFD78A",
"Q 	c #FFD88A",
"R 	c #FFDC90",
"S 	c #B06A0F",
"T 	c #FFDD92",
"U 	c #E6B96C",
"V 	c #FAD58A",
"W 	c #FED98E",
"X 	c #FFD98E",
"Y 	c #FFDA8F",
"Z 	c #FFD98F",
"` 	c #FFE094",
" .	c #6F5228",
"..	c #F79314",
"+.	c #FFD179",
"@.	c #FFCE73",
"#.	c #FFCE74",
"$.	c #F8C469",
"%.	c #A8630C",
"&.	c #FFD47B",
"*.	c #E4B15B",
"=.	c #683700",
"-.	c #FFD87F",
";.	c #FFD078",
">.	c #FFD079",
",.	c #FFD37B",
"'.	c #876835",
").	c #F6A32D",
"!.	c #FFC45D",
"~.	c #FFC55E",
"{.	c #FFC45E",
"].	c #FFC55F",
"^.	c #F7BB55",
"/.	c #9F5D08",
"(.	c #FFCB65",
"_.	c #E2A94A",
":.	c #EDB757",
"<.	c #FEC662",
"[.	c #FFC763",
"}.	c #FFCF69",
"|.	c #513915",
"1.	c #F6A730",
"2.	c #FFBB47",
"3.	c #FFBB48",
"4.	c #FFBC49",
"5.	c #F6B241",
"6.	c #965606",
"7.	c #FFC14E",
"8.	c #DFA039",
"9.	c #764A0F",
"0.	c #F4B448",
"a.	c #FFC14F",
"b.	c #FFC04E",
"c.	c #FFC650",
"d.	c #815C22",
"e.	c #F6A325",
"f.	c #FFB232",
"g.	c #FFB233",
"h.	c #F5A92E",
"i.	c #8D5103",
"j.	c #FFB837",
"k.	c #DD9829",
"l.	c #7C5213",
"m.	c #895D18",
"n.	c #402706",
"o.	c #F69D16",
"p.	c #FFA81C",
"q.	c #FFA91C",
"r.	c #FFA91D",
"s.	c #F4A01A",
"t.	c #834A01",
"u.	c #FFAF20",
"v.	c #DC9017",
"w.	c #F69704",
"x.	c #FF9F05",
"y.	c #FF9F06",
"z.	c #F49706",
"A.	c #7B4400",
"B.	c #FFA409",
"C.	c #DA8706",
"D.	c #F59502",
"E.	c #FF9D03",
"F.	c #FF9C02",
"G.	c #F29401",
"H.	c #744100",
"I.	c #FFA102",
"J.	c #D88301",
"K.	c #E78A05",
"L.	c #FF9D08",
"M.	c #F19407",
"N.	c #6E3D00",
"O.	c #FFA108",
"P.	c #D68205",
"Q.	c #D67E06",
"R.	c #FF9D0E",
"S.	c #FF9D0D",
"T.	c #F1940B",
"U.	c #673A00",
"V.	c #FFA20E",
"W.	c #D3810A",
"X.	c #5A3704",
"Y.	c #B46602",
"Z.	c #FFA114",
"`.	c #FF9E13",
" +	c #F09411",
".+	c #613701",
"++	c #FFA313",
"@+	c #D1810E",
"#+	c #704507",
"$+	c #D2820E",
"%+	c #E18811",
"&+	c #FE9D18",
"*+	c #FF9E19",
"=+	c #FF9E18",
"-+	c #FFA119",
";+	c #5B3302",
">+	c #FFA319",
",+	c #CF7F12",
"'+	c #ED9315",
")+	c #603B08",
"!+	c #9F5B05",
"~+	c #FFA220",
"{+	c #FF9E1E",
"]+	c #FFA21F",
"^+	c #704004",
"/+	c #553103",
"(+	c #FFA31E",
"_+	c #CD7F16",
":+	c #583609",
"<+	c #ED931A",
"[+	c #BC7011",
"}+	c #FFA125",
"|+	c #FF9F23",
"1+	c #FFA023",
"2+	c #94580E",
"3+	c #4F2D04",
"4+	c #FFA425",
"5+	c #CB7E1B",
"6+	c #211404",
"7+	c #FFA523",
"8+	c #4D2F0A",
"9+	c #BF7417",
"0+	c #FFA22A",
"a+	c #FE9E29",
"b+	c #FE9E28",
"c+	c #F69926",
"d+	c #4B2B05",
"e+	c #FFA42A",
"f+	c #C97D1E",
"g+	c #130C02",
"h+	c #E08C23",
"i+	c #7B4D12",
"j+	c #92570F",
"k+	c #FA9D2D",
"l+	c #FFA02E",
"m+	c #C17820",
"n+	c #3A2204",
"o+	c #FFA530",
"p+	c #C77C23",
"q+	c #58360F",
"r+	c #FFA62F",
"s+	c #8B5618",
"t+	c #432500",
"u+	c #9A5E19",
"v+	c #E08C2C",
"w+	c #FFA736",
"x+	c #FFA735",
"y+	c #FE9F33",
"z+	c #E28D2D",
"A+	c #492D0E",
"B+	c #653F14",
"C+	c #7D4E19",
"D+	c #DC892C",
"E+	c #EC942F",
"F+	c #3B250B",
"G+	c #351F06",
"H+	c #89551C",
"I+	c #FFA33A",
"J+	c #FC9E38",
"K+	c #BF782A",
"L+	c #B47127",
"M+	c #7F4F1B",
"N+	c #3E270D",
"O+	c #150B01",
"P+	c #FFA32F",
"Q+	c #C37722",
"R+	c #0C0600",
"S+	c #FF9B11",
"T+	c #C4720C",
"U+	c #FF9900",
"V+	c #BE6B00",
"W+	c #7E4700",
"X+	c #4B2A00",
"                              . +                               ",
"                              @ #                               ",
"                            $ % &                               ",
"                            * % =                               ",
"                          - ; > , ' ) ! ~                       ",
"                    { ] ^ / ( _ : < [ } | 1 2                   ",
"                  3 _ 4 5 6 7 8 9         0 a b                 ",
"                c d _ _ e   f 8 g             h i               ",
"              j k l m n o   p q r         s t u v w             ",
"            x y z A A B C   D E F       G H I J K L             ",
"            M N O P Q R     S T U       V W X Y Z `  .          ",
"          ..+.@.#.#.#.$.    %.&.*.    =.-.;.>.>.>.,.'.          ",
"          ).!.~.{.~.].^.    /.(._.      :.<.[.[.[.}.|.          ",
"          1.2.3.3.3.4.5.    6.7.8.      9.0.a.b.c.d.            ",
"          e.f.f.f.g.g.h.    i.j.k.          l.m.n.              ",
"          o.p.q.p.r.r.s.    t.u.v.                              ",
"          w.x.x.x.y.y.z.    A.B.C.                              ",
"          D.E.E.E.F.F.G.    H.I.J.                              ",
"          K.L.L.L.L.L.M.    N.O.P.                              ",
"          Q.R.S.R.R.S.T.    U.V.W.                  X.          ",
"          Y.Z.`.`.`.`. +    .+++@+                #+$+          ",
"            %+&+*+=+=+-+    ;+>+,+                '+)+          ",
"            !+~+{+{+{+]+^+  /+(+_+              :+<+            ",
"              [+}+|+|+1+2+  3+4+5+            6+7+8+            ",
"                9+0+a+b+c+  d+e+f+          g+h+i+              ",
"                  j+k+l+l+m+n+o+p+        q+r+s+                ",
"                    t+u+v+w+x+y+z+A+B+C+D+E+F+                  ",
"                          G+H+I+J+K+L+M+N+                      ",
"                            O+P+Q+                              ",
"                            R+S+T+                              ",
"                              U+V+                              ",
"                              W+X+                              "};
