/* XPM */
static char * canorus_16x16_xpm[] = {
"16 16 86 1",
" 	c None",
".	c #FCBF65",
"+	c #F1AD4F",
"@	c #F8CA80",
"#	c #E9B262",
"$	c #F7C374",
"%	c #FCE3AB",
"&	c #EFCC8E",
"*	c #D8AA63",
"=	c #DDB87A",
"-	c #FDC570",
";	c #FFEFBF",
">	c #F4D190",
",	c #ECC17B",
"'	c #DEB16C",
")	c #D2B47D",
"!	c #FEBE5F",
"~	c #FFE8B0",
"{	c #FFEAB2",
"]	c #E9C07A",
"^	c #D7AB66",
"/	c #BD9556",
"(	c #E8CC92",
"_	c #E3CA94",
":	c #FED17C",
"<	c #FFD37F",
"[	c #FED17E",
"}	c #E3B05B",
"|	c #D09C4C",
"1	c #FFD887",
"2	c #FED584",
"3	c #FFDC89",
"4	c #F5A129",
"5	c #FFC254",
"6	c #FFC054",
"7	c #FABC4F",
"8	c #DE9F3C",
"9	c #C88D32",
"0	c #D8A044",
"a	c #FFC75A",
"b	c #E5AF4F",
"c	c #EF9716",
"d	c #FFAE28",
"e	c #FAAA26",
"f	c #D98F1D",
"g	c #C17F19",
"h	c #EB8B01",
"i	c #FF9E03",
"j	c #FF9D03",
"k	c #F99903",
"l	c #D48103",
"m	c #BA7002",
"n	c #DA8005",
"o	c #FF9E0C",
"p	c #FF9D0B",
"q	c #F8990A",
"r	c #CE7D07",
"s	c #B36C06",
"t	c #FA9A15",
"u	c #FE9D16",
"v	c #FC9C15",
"w	c #CA7B0F",
"x	c #AB680C",
"y	c #8E570B",
"z	c #8C5609",
"A	c #C77711",
"B	c #FFA122",
"C	c #FFA222",
"D	c #C57917",
"E	c #A46512",
"F	c #B06D15",
"G	c #BA7118",
"H	c #FFA22D",
"I	c #CF8122",
"J	c #B46F1C",
"K	c #9C6019",
"L	c #B7721F",
"M	c #B26F22",
"N	c #EC9432",
"O	c #C17929",
"P	c #8B571D",
"Q	c #A46721",
"R	c #B16914",
"S	c #854F0F",
"T	c #8B4E00",
"U	c #714000",
"       .+       ",
"       @#       ",
"      $%&*=     ",
"    -;>,'  )    ",
"   !~{ ]^ /(_   ",
"   :<[ }| 123   ",
"  4567 89 0ab   ",
"  cdde fg       ",
"  hijk lm       ",
"  nopq rs       ",
"   tuv wx   yz  ",
"   ABC DE   F   ",
"    GHIJK  L    ",
"      MNOPQ     ",
"       RS       ",
"       TU       "};
